<?xml version="1.0" encoding="UTF-8"?>
<mxfile host="app.diagrams.net" modified="2023-09-10T00:48:04.968Z" agent="Mozilla/5.0 (Windows NT 10.0; Win64; x64) AppleWebKit/537.36 (KHTML, like Gecko) Chrome/116.0.0.0 Safari/537.36" etag="QEOd_qkYMkNhjDqLBnPh" version="21.7.4" type="google">
  <diagram name="Página-1" id="mqiUqMRUA_Bc-FHTXcTG">
    <mxGraphModel dx="1050" dy="542" grid="1" gridSize="10" guides="1" tooltips="1" connect="1" arrows="1" fold="1" page="1" pageScale="1" pageWidth="827" pageHeight="1169" math="0" shadow="0">
      <root>
        <mxCell id="0" />
        <mxCell id="1" parent="0" />
        <mxCell id="cF5dVx1Dv24FKEyF1APY-1" value="" style="strokeWidth=2;html=1;shape=mxgraph.flowchart.start_2;whiteSpace=wrap;" parent="1" vertex="1">
          <mxGeometry x="80" y="97.5" width="30" height="30" as="geometry" />
        </mxCell>
        <mxCell id="cF5dVx1Dv24FKEyF1APY-2" value="" style="ellipse;shape=doubleEllipse;whiteSpace=wrap;html=1;aspect=fixed;perimeterSpacing=0;strokeWidth=2;" parent="1" vertex="1">
          <mxGeometry x="608.13" y="580" width="40" height="40" as="geometry" />
        </mxCell>
        <mxCell id="cF5dVx1Dv24FKEyF1APY-3" value="Iniciar sesión como Paciente" style="rounded=1;whiteSpace=wrap;html=1;" parent="1" vertex="1">
          <mxGeometry x="140" y="82.5" width="120" height="60" as="geometry" />
        </mxCell>
        <mxCell id="cF5dVx1Dv24FKEyF1APY-4" value="" style="endArrow=classic;html=1;rounded=0;exitX=1;exitY=0.5;exitDx=0;exitDy=0;exitPerimeter=0;entryX=0;entryY=0.5;entryDx=0;entryDy=0;" parent="1" source="cF5dVx1Dv24FKEyF1APY-1" target="cF5dVx1Dv24FKEyF1APY-3" edge="1">
          <mxGeometry width="50" height="50" relative="1" as="geometry">
            <mxPoint x="230" y="402.5" as="sourcePoint" />
            <mxPoint x="280" y="352.5" as="targetPoint" />
          </mxGeometry>
        </mxCell>
        <mxCell id="cF5dVx1Dv24FKEyF1APY-5" value="" style="endArrow=classic;html=1;rounded=0;exitX=1;exitY=0.5;exitDx=0;exitDy=0;entryX=0;entryY=0.5;entryDx=0;entryDy=0;" parent="1" source="cF5dVx1Dv24FKEyF1APY-3" target="cF5dVx1Dv24FKEyF1APY-15" edge="1">
          <mxGeometry width="50" height="50" relative="1" as="geometry">
            <mxPoint x="130" y="137.5" as="sourcePoint" />
            <mxPoint x="180" y="137.5" as="targetPoint" />
          </mxGeometry>
        </mxCell>
        <mxCell id="cF5dVx1Dv24FKEyF1APY-6" value="Existe medicación registrada" style="rhombus;whiteSpace=wrap;html=1;" parent="1" vertex="1">
          <mxGeometry x="301.25" y="260" width="132.5" height="120" as="geometry" />
        </mxCell>
        <mxCell id="cF5dVx1Dv24FKEyF1APY-7" value="Ingresar cita médica" style="rounded=1;whiteSpace=wrap;html=1;" parent="1" vertex="1">
          <mxGeometry x="568.13" y="290" width="120" height="60" as="geometry" />
        </mxCell>
        <mxCell id="cF5dVx1Dv24FKEyF1APY-8" value="No" style="endArrow=classic;html=1;rounded=0;exitX=1;exitY=0.5;exitDx=0;exitDy=0;entryX=0;entryY=0.5;entryDx=0;entryDy=0;" parent="1" source="cF5dVx1Dv24FKEyF1APY-6" target="cF5dVx1Dv24FKEyF1APY-7" edge="1">
          <mxGeometry width="50" height="50" relative="1" as="geometry">
            <mxPoint x="400" y="167.5" as="sourcePoint" />
            <mxPoint x="400" y="197.5" as="targetPoint" />
            <Array as="points" />
          </mxGeometry>
        </mxCell>
        <mxCell id="cF5dVx1Dv24FKEyF1APY-9" value="" style="endArrow=classic;html=1;rounded=0;exitX=0.5;exitY=1;exitDx=0;exitDy=0;entryX=0.5;entryY=0;entryDx=0;entryDy=0;" parent="1" source="cF5dVx1Dv24FKEyF1APY-6" target="cF5dVx1Dv24FKEyF1APY-11" edge="1">
          <mxGeometry width="50" height="50" relative="1" as="geometry">
            <mxPoint x="400" y="167.5" as="sourcePoint" />
            <mxPoint x="390" y="297.5" as="targetPoint" />
            <Array as="points" />
          </mxGeometry>
        </mxCell>
        <mxCell id="cF5dVx1Dv24FKEyF1APY-10" value="Si" style="edgeLabel;html=1;align=center;verticalAlign=middle;resizable=0;points=[];" parent="cF5dVx1Dv24FKEyF1APY-9" vertex="1" connectable="0">
          <mxGeometry x="-0.4267" y="1" relative="1" as="geometry">
            <mxPoint x="-1" y="12" as="offset" />
          </mxGeometry>
        </mxCell>
        <mxCell id="cF5dVx1Dv24FKEyF1APY-11" value="Seleccionar cita médica" style="rounded=1;whiteSpace=wrap;html=1;" parent="1" vertex="1">
          <mxGeometry x="307.5" y="450" width="120" height="60" as="geometry" />
        </mxCell>
        <mxCell id="cF5dVx1Dv24FKEyF1APY-12" value="Mostrar información de la cita médica" style="rounded=1;whiteSpace=wrap;html=1;" parent="1" vertex="1">
          <mxGeometry x="307.5" y="570" width="120" height="60" as="geometry" />
        </mxCell>
        <mxCell id="cF5dVx1Dv24FKEyF1APY-13" value="" style="endArrow=classic;html=1;rounded=0;exitX=0.5;exitY=1;exitDx=0;exitDy=0;entryX=0.5;entryY=0;entryDx=0;entryDy=0;" parent="1" source="cF5dVx1Dv24FKEyF1APY-11" target="cF5dVx1Dv24FKEyF1APY-12" edge="1">
          <mxGeometry width="50" height="50" relative="1" as="geometry">
            <mxPoint x="400" y="167.5" as="sourcePoint" />
            <mxPoint x="400" y="197.5" as="targetPoint" />
            <Array as="points" />
          </mxGeometry>
        </mxCell>
        <mxCell id="cF5dVx1Dv24FKEyF1APY-14" value="Derivar al usuario a ejecutar el proceso de registro de cita médica" style="shape=note;whiteSpace=wrap;html=1;backgroundOutline=1;darkOpacity=0.05;" parent="1" vertex="1">
          <mxGeometry x="536.88" y="70" width="182.5" height="130" as="geometry" />
        </mxCell>
        <mxCell id="cF5dVx1Dv24FKEyF1APY-15" value="Acceder a Medicación Consumida" style="rounded=1;whiteSpace=wrap;html=1;" parent="1" vertex="1">
          <mxGeometry x="302.5" y="82.5" width="130" height="60" as="geometry" />
        </mxCell>
        <mxCell id="cF5dVx1Dv24FKEyF1APY-16" value="" style="endArrow=classic;html=1;rounded=0;entryX=0.5;entryY=0;entryDx=0;entryDy=0;exitX=0.5;exitY=1;exitDx=0;exitDy=0;" parent="1" source="cF5dVx1Dv24FKEyF1APY-15" target="cF5dVx1Dv24FKEyF1APY-6" edge="1">
          <mxGeometry width="50" height="50" relative="1" as="geometry">
            <mxPoint x="310" y="147.5" as="sourcePoint" />
            <mxPoint x="367.5" y="167.5" as="targetPoint" />
            <Array as="points" />
          </mxGeometry>
        </mxCell>
        <mxCell id="cF5dVx1Dv24FKEyF1APY-17" value="" style="endArrow=none;dashed=1;html=1;dashPattern=1 3;strokeWidth=2;rounded=0;exitX=0.5;exitY=0;exitDx=0;exitDy=0;" parent="1" source="cF5dVx1Dv24FKEyF1APY-7" target="cF5dVx1Dv24FKEyF1APY-14" edge="1">
          <mxGeometry width="50" height="50" relative="1" as="geometry">
            <mxPoint x="470" y="177.5" as="sourcePoint" />
            <mxPoint x="520" y="127.5" as="targetPoint" />
          </mxGeometry>
        </mxCell>
        <mxCell id="cF5dVx1Dv24FKEyF1APY-18" value="" style="endArrow=classic;html=1;rounded=0;entryX=1;entryY=0.5;entryDx=0;entryDy=0;exitX=0.5;exitY=1;exitDx=0;exitDy=0;" parent="1" source="cF5dVx1Dv24FKEyF1APY-7" target="cF5dVx1Dv24FKEyF1APY-11" edge="1">
          <mxGeometry width="50" height="50" relative="1" as="geometry">
            <mxPoint x="460" y="360" as="sourcePoint" />
            <mxPoint x="460" y="417" as="targetPoint" />
            <Array as="points">
              <mxPoint x="628" y="480" />
              <mxPoint x="560" y="480" />
            </Array>
          </mxGeometry>
        </mxCell>
        <mxCell id="cF5dVx1Dv24FKEyF1APY-19" value="" style="endArrow=classic;html=1;rounded=0;exitX=1;exitY=0.5;exitDx=0;exitDy=0;entryX=0;entryY=0.5;entryDx=0;entryDy=0;" parent="1" source="cF5dVx1Dv24FKEyF1APY-12" target="cF5dVx1Dv24FKEyF1APY-2" edge="1">
          <mxGeometry width="50" height="50" relative="1" as="geometry">
            <mxPoint x="378" y="450" as="sourcePoint" />
            <mxPoint x="470" y="720" as="targetPoint" />
            <Array as="points" />
          </mxGeometry>
        </mxCell>
      </root>
    </mxGraphModel>
  </diagram>
</mxfile>
